<?xml version="1.0" encoding="UTF-8" standalone="no"?>
<!DOCTYPE svg PUBLIC "-//W3C//DTD SVG 1.1//EN"
 "http://www.w3.org/Graphics/SVG/1.1/DTD/svg11.dtd">
<!-- Generated by graphviz version 2.47.0 (20210316.0004)
 -->
<!-- Title: dependencies Pages: 1 -->
<svg width="914pt" height="290pt"
 viewBox="0.00 0.00 914.00 290.00" xmlns="http://www.w3.org/2000/svg" xmlns:xlink="http://www.w3.org/1999/xlink">
<g id="graph0" class="graph" transform="scale(1 1) rotate(0) translate(4 286)">
<title>dependencies</title>
<polygon fill="white" stroke="transparent" points="-4,4 -4,-286 910,-286 910,4 -4,4"/>
<text text-anchor="start" x="432.01" y="-42.4" font-family="Times-12" font-weight="bold" font-size="14.00">Legend</text>
<polygon fill="#ffffb3" stroke="transparent" points="219,-10 219,-30 239,-30 239,-10 219,-10"/>
<text text-anchor="start" x="242.63" y="-15.4" font-family="Times-12" font-size="14.00"> &#160;Declarations</text>
<polygon fill="#8dd3c7" stroke="transparent" points="332,-10 332,-30 352,-30 352,-10 332,-10"/>
<text text-anchor="start" x="355.73" y="-15.4" font-family="Times-12" font-size="14.00"> &#160;Module</text>
<polygon fill="#80b1d3" stroke="transparent" points="418,-10 418,-30 438,-30 438,-10 418,-10"/>
<text text-anchor="start" x="441.78" y="-15.4" font-family="Times-12" font-size="14.00"> &#160;Bootstrap</text>
<polygon fill="#fdb462" stroke="transparent" points="515,-10 515,-30 535,-30 535,-10 515,-10"/>
<text text-anchor="start" x="538.67" y="-15.4" font-family="Times-12" font-size="14.00"> &#160;Providers</text>
<polygon fill="#fb8072" stroke="transparent" points="611,-10 611,-30 631,-30 631,-10 611,-10"/>
<text text-anchor="start" x="634.73" y="-15.4" font-family="Times-12" font-size="14.00"> &#160;Exports</text>
<g id="clust7" class="cluster">
<title>cluster_AuthModule</title>
<polygon fill="none" stroke="black" stroke-dasharray="1,5" points="748,-70 748,-274 898,-274 898,-70 748,-70"/>
</g>
<g id="clust12" class="cluster">
<title>cluster_AuthModule_providers</title>
<polygon fill="none" stroke="black" points="756,-78 756,-130 890,-130 890,-78 756,-78"/>
</g>
<g id="clust10" class="cluster">
<title>cluster_AuthModule_exports</title>
<polygon fill="none" stroke="black" points="763,-214 763,-266 869,-266 869,-214 763,-214"/>
</g>
<g id="clust13" class="cluster">
<title>cluster_PostsModule</title>
<polygon fill="none" stroke="black" stroke-dasharray="1,5" points="162,-70 162,-198 430,-198 430,-70 162,-70"/>
</g>
<g id="clust15" class="cluster">
<title>cluster_PostsModule_imports</title>
<polygon fill="none" stroke="black" points="170,-78 170,-130 278,-130 278,-78 170,-78"/>
</g>
<g id="clust18" class="cluster">
<title>cluster_PostsModule_providers</title>
<polygon fill="none" stroke="black" points="286,-78 286,-130 422,-130 422,-78 286,-78"/>
</g>
<g id="clust19" class="cluster">
<title>cluster_UsersModule</title>
<polygon fill="none" stroke="black" stroke-dasharray="1,5" points="438,-138 438,-206 712,-206 712,-138 438,-138"/>
</g>
<g id="clust24" class="cluster">
<title>cluster_UsersModule_providers</title>
<polygon fill="none" stroke="black" points="564,-146 564,-198 704,-198 704,-146 564,-146"/>
</g>
<g id="clust22" class="cluster">
<title>cluster_UsersModule_exports</title>
<polygon fill="none" stroke="black" points="446,-146 446,-198 556,-198 556,-146 446,-146"/>
</g>
<g id="clust1" class="cluster">
<title>cluster_AppModule</title>
<polygon fill="none" stroke="black" stroke-dasharray="1,5" points="8,-138 8,-266 154,-266 154,-138 8,-138"/>
</g>
<g id="clust6" class="cluster">
<title>cluster_AppModule_providers</title>
<polygon fill="none" stroke="black" points="16,-146 16,-198 146,-198 146,-146 16,-146"/>
</g>
<!-- AuthModule -->
<g id="node1" class="node">
<title>AuthModule</title>
<polygon fill="#8dd3c7" stroke="black" points="859.55,-190 856.55,-194 835.55,-194 832.55,-190 772.45,-190 772.45,-154 859.55,-154 859.55,-190"/>
<text text-anchor="middle" x="816" y="-167.8" font-family="Times,serif" font-size="14.00">AuthModule</text>
</g>
<!-- AppModule -->
<g id="node4" class="node">
<title>AppModule</title>
<polygon fill="#8dd3c7" stroke="black" points="145.66,-258 142.66,-262 121.66,-262 118.66,-258 62.34,-258 62.34,-222 145.66,-222 145.66,-258"/>
<text text-anchor="middle" x="104" y="-235.8" font-family="Times,serif" font-size="14.00">AppModule</text>
</g>
<!-- AuthModule&#45;&gt;AppModule -->
<g id="edge1" class="edge">
<title>AuthModule&#45;&gt;AppModule</title>
<path fill="none" stroke="black" d="M772.31,-172C769.33,-172 767.48,-172 767.48,-172 767.48,-172 767.48,-246 767.48,-246 767.48,-246 155.75,-246 155.75,-246"/>
<polygon fill="black" stroke="black" points="155.75,-242.5 145.75,-246 155.75,-249.5 155.75,-242.5"/>
</g>
<!-- AuthService  -->
<g id="node7" class="node">
<title>AuthService </title>
<polygon fill="#fb8072" stroke="black" points="860.98,-258 771.02,-258 771.02,-222 860.98,-222 860.98,-258"/>
<text text-anchor="middle" x="816" y="-235.8" font-family="Times,serif" font-size="14.00">AuthService </text>
</g>
<!-- AuthModule&#45;&gt;AuthService  -->
<g id="edge6" class="edge">
<title>AuthModule&#45;&gt;AuthService </title>
<path fill="none" stroke="black" stroke-dasharray="5,2" d="M816,-190.22C816,-190.22 816,-211.73 816,-211.73"/>
<polygon fill="black" stroke="black" points="812.5,-211.73 816,-221.73 819.5,-211.73 812.5,-211.73"/>
</g>
<!-- PostsModule -->
<g id="node2" class="node">
<title>PostsModule</title>
<polygon fill="#8dd3c7" stroke="black" points="259.61,-190 256.61,-194 235.61,-194 232.61,-190 170.39,-190 170.39,-154 259.61,-154 259.61,-190"/>
<text text-anchor="middle" x="215" y="-167.8" font-family="Times,serif" font-size="14.00">PostsModule</text>
</g>
<!-- PostsModule&#45;&gt;AppModule -->
<g id="edge2" class="edge">
<title>PostsModule&#45;&gt;AppModule</title>
<path fill="none" stroke="black" d="M170.28,-172C155.65,-172 143.09,-172 143.09,-172 143.09,-172 143.09,-211.78 143.09,-211.78"/>
<polygon fill="black" stroke="black" points="139.59,-211.78 143.09,-221.78 146.59,-211.78 139.59,-211.78"/>
</g>
<!-- UsersModule -->
<g id="node3" class="node">
<title>UsersModule</title>
<polygon fill="#8dd3c7" stroke="black" points="269.92,-122 266.92,-126 245.92,-126 242.92,-122 178.08,-122 178.08,-86 269.92,-86 269.92,-122"/>
<text text-anchor="middle" x="224" y="-99.8" font-family="Times,serif" font-size="14.00">UsersModule</text>
</g>
<!-- UsersModule&#45;&gt;PostsModule -->
<g id="edge8" class="edge">
<title>UsersModule&#45;&gt;PostsModule</title>
<path fill="none" stroke="black" d="M218.92,-122.22C218.92,-122.22 218.92,-143.73 218.92,-143.73"/>
<polygon fill="black" stroke="black" points="215.42,-143.73 218.92,-153.73 222.42,-143.73 215.42,-143.73"/>
</g>
<!-- UsersModule&#45;&gt;AppModule -->
<g id="edge3" class="edge">
<title>UsersModule&#45;&gt;AppModule</title>
<path fill="none" stroke="black" d="M178.26,-104C158.73,-104 140.36,-104 140.36,-104 140.36,-104 140.36,-211.94 140.36,-211.94"/>
<polygon fill="black" stroke="black" points="136.86,-211.94 140.36,-221.94 143.86,-211.94 136.86,-211.94"/>
</g>
<!-- UsersService  -->
<g id="node9" class="node">
<title>UsersService </title>
<polygon fill="#fb8072" stroke="black" points="547.85,-190 454.15,-190 454.15,-154 547.85,-154 547.85,-190"/>
<text text-anchor="middle" x="501" y="-167.8" font-family="Times,serif" font-size="14.00">UsersService </text>
</g>
<!-- UsersModule&#45;&gt;UsersService  -->
<g id="edge10" class="edge">
<title>UsersModule&#45;&gt;UsersService </title>
<path fill="none" stroke="black" stroke-dasharray="5,2" d="M266.33,-122.29C266.33,-144.21 266.33,-178 266.33,-178 266.33,-178 444.07,-178 444.07,-178"/>
<polygon fill="black" stroke="black" points="444.07,-181.5 454.07,-178 444.07,-174.5 444.07,-181.5"/>
</g>
<!-- AppService -->
<g id="node5" class="node">
<title>AppService</title>
<ellipse fill="#fdb462" stroke="black" cx="81" cy="-172" rx="56.74" ry="18"/>
<text text-anchor="middle" x="81" y="-167.8" font-family="Times,serif" font-size="14.00">AppService</text>
</g>
<!-- AppService&#45;&gt;AppModule -->
<g id="edge4" class="edge">
<title>AppService&#45;&gt;AppModule</title>
<path fill="none" stroke="black" d="M99.9,-189.16C99.9,-189.16 99.9,-211.65 99.9,-211.65"/>
<polygon fill="black" stroke="black" points="96.4,-211.65 99.9,-221.65 103.4,-211.65 96.4,-211.65"/>
</g>
<!-- PostsService -->
<g id="node6" class="node">
<title>PostsService</title>
<ellipse fill="#fdb462" stroke="black" cx="354" cy="-104" rx="60.27" ry="18"/>
<text text-anchor="middle" x="354" y="-99.8" font-family="Times,serif" font-size="14.00">PostsService</text>
</g>
<!-- PostsService&#45;&gt;PostsModule -->
<g id="edge9" class="edge">
<title>PostsService&#45;&gt;PostsModule</title>
<path fill="none" stroke="black" d="M333.87,-121.27C333.87,-139.62 333.87,-166 333.87,-166 333.87,-166 269.6,-166 269.6,-166"/>
<polygon fill="black" stroke="black" points="269.6,-162.5 259.6,-166 269.6,-169.5 269.6,-162.5"/>
</g>
<!-- PostsService&#45;&gt;AppModule -->
<g id="edge5" class="edge">
<title>PostsService&#45;&gt;AppModule</title>
<path fill="none" stroke="black" d="M374.13,-121C374.13,-156.23 374.13,-234 374.13,-234 374.13,-234 155.91,-234 155.91,-234"/>
<polygon fill="black" stroke="black" points="155.91,-230.5 145.91,-234 155.91,-237.5 155.91,-230.5"/>
</g>
<!-- AuthService -->
<g id="node8" class="node">
<title>AuthService</title>
<ellipse fill="#fdb462" stroke="black" cx="823" cy="-104" rx="59.11" ry="18"/>
<text text-anchor="middle" x="823" y="-99.8" font-family="Times,serif" font-size="14.00">AuthService</text>
</g>
<!-- AuthService&#45;&gt;AuthModule -->
<g id="edge7" class="edge">
<title>AuthService&#45;&gt;AuthModule</title>
<path fill="none" stroke="black" d="M816,-122.22C816,-122.22 816,-143.73 816,-143.73"/>
<polygon fill="black" stroke="black" points="812.5,-143.73 816,-153.73 819.5,-143.73 812.5,-143.73"/>
</g>
<!-- UsersService -->
<g id="node10" class="node">
<title>UsersService</title>
<ellipse fill="#fdb462" stroke="black" cx="634" cy="-172" rx="61.95" ry="18"/>
<text text-anchor="middle" x="634" y="-167.8" font-family="Times,serif" font-size="14.00">UsersService</text>
</g>
<!-- UsersService&#45;&gt;UsersModule -->
<g id="edge11" class="edge">
<title>UsersService&#45;&gt;UsersModule</title>
<path fill="none" stroke="black" d="M634,-153.81C634,-145.72 634,-138 634,-138 634,-138 262.94,-138 262.94,-138 262.94,-138 262.94,-132.19 262.94,-132.19"/>
<polygon fill="black" stroke="black" points="266.44,-132.19 262.94,-122.19 259.44,-132.19 266.44,-132.19"/>
</g>
</g>
</svg>
